<svg width="746" height="90" xmlns="http://www.w3.org/2000/svg">
 <style type="text/css">.st0{fill-rule:evenodd;clip-rule:evenodd;fill:#1D1D1B;}
	.st1{fill-rule:evenodd;clip-rule:evenodd;fill:#E20613;}</style>

 <g>
  <title>background</title>
  <rect fill="none" id="canvas_background" height="92" width="748" y="-1" x="-1"/>
 </g>
 <g>
  <title>Layer 1</title>
  <g id="svg_1">
   <path id="svg_2" d="m190.400005,55.23333l-25.4,-54.6l15,0l17.2,39.7l17.2,-39.7l14.6,0l-25,54.6l0,32.2l-13.7,0l0,-32.2l0.1,0zm117.3,-54.6l14.6,0l0,37.4l27,-37.4l18.2,0l-32.8,42.6l32.8,44.2l-18.2,0l-27,-38l0,38l-14.6,0l0,-86.8l0,0zm134.3,0l15,0l0,35.4l27.3,0l0,-35.4l14.6,0l0,86.8l-14.6,0l0,-37.4l-27.3,0l0,37.4l-15,0l0,-86.8l0,0zm106.6,49.4l-9.4,-27l-9.4,27l18.8,0l0,0zm-14.9,-49.4l10.4,0l33.2,86.8l-15.3,0l-9.1,-23.4l-27,0l-9.4,23.4l-15,0l32.2,-86.8l0,0zm92.6,86.8l22.4,-55.3l0,55.3l14,0l0,-86.8l-14.6,0l-27,62.1l-26.6,-62.1l-14.6,0l0,86.8l14,0l0,-55.3l22.4,55.3l10,0l0,0zm86.2,-37.4l-9.1,-27l-9.4,27l18.5,0l0,0zm-14.7,-49.4l10.4,0l33.2,86.8l-15.3,0l-9.1,-23.4l-27.3,0l-9.1,23.4l-15,0l32.2,-86.8l0,0zm-437.2,73.8l0,0c-16.6,0 -29.9,-13.3 -29.9,-29.9c0,-16.3 13.3,-29.6 29.9,-29.6c16.6,0 29.9,13.3 29.9,29.6c0,16.6 -13.3,29.9 -29.9,29.9l0,0zm0,-74.4c-24.7,0 -44.5,20.2 -44.5,44.5c0,24.7 19.8,44.9 44.5,44.9c24.7,0 44.5,-20.2 44.5,-44.9c0,-24.4 -19.8,-44.5 -44.5,-44.5l0,0zm134.3,74.4l0,0c-16.6,0 -29.9,-13.3 -29.9,-29.9c0,-16.3 13.3,-29.6 29.9,-29.6c16.6,0 29.9,13.3 29.9,29.6c0,16.6 -13.4,29.9 -29.9,29.9l0,0zm0,-74.4c-24.4,0 -44.5,20.2 -44.5,44.5c0,24.7 20.2,44.9 44.5,44.9c24.7,0 44.5,-20.2 44.5,-44.9c0,-24.4 -19.8,-44.5 -44.5,-44.5l0,0z" class="st0"/>
   <polygon id="svg_3" points="112.10001134872437,45.23332369327545 66.90000677108765,0.03332674503326416 58.90000677108765,0.03332674503326416 104.20000219345093,45.23332369327545 60.100003719329834,89.4333359003067 68.20000219345093,89.4333359003067 112.10001134872437,45.23332369327545 " class="st1"/>
   <polygon id="svg_4" points="97.90000677108765,45.23332369327545 52.80000829696655,0.03332674503326416 44.70000219345093,0.03332674503326416 89.90000677108765,45.23332369327545 46.00000524520874,89.4333359003067 54.00000524520874,89.4333359003067 97.90000677108765,45.23332369327545 " class="st1"/>
   <polygon id="svg_5" points="83.80000829696655,45.23332369327545 38.600003719329834,0.03332674503326416 30.600003719329834,0.03332674503326416 75.90000677108765,45.23332369327545 31.800004482269287,89.4333359003067 39.90000677108765,89.4333359003067 83.80000829696655,45.23332369327545 " class="st1"/>
   <polygon id="svg_6" points="69.60000371932983,45.23332369327545 24.50000524520874,0.03332674503326416 16.400006771087646,0.03332674503326416 61.70000219345093,45.23332369327545 17.700006008148193,89.4333359003067 25.700006008148193,89.4333359003067 69.60000371932983,45.23332369327545 " class="st1"/>
   <polygon id="svg_7" points="55.50000524520874,45.23332369327545 10.300004482269287,0.03332674503326416 2.4000048637390137,0.03332674503326416 47.40000677108765,45.23332369327545 3.5000052452087402,89.4333359003067 11.400006771087646,89.4333359003067 55.50000524520874,45.23332369327545 " class="st1"/>
   <polygon id="svg_8" points="111.89999914169312,45.53334200382233 157.39999914169312,0.03332674503326416 149.20000219345093,0.03332674503326416 108.00000524520874,41.4333359003067 111.89999914169312,45.53334200382233 " class="st1"/>
   <polygon id="svg_9" points="105.10001134872437,38.23332369327545 143.10001134872437,0.03332674503326416 135.20000219345093,0.03332674503326416 101.00000524520874,34.23332369327545 105.10001134872437,38.23332369327545 " class="st1"/>
   <polygon id="svg_10" points="98.10000371932983,31.23332369327545 129.10001134872437,0.03332674503326416 121.00000524520874,0.03332674503326416 94.00000524520874,27.133317589759827 98.10000371932983,31.23332369327545 " class="st1"/>
   <polygon id="svg_11" points="90.80000829696655,24.033342003822327 114.80000829696655,0.03332674503326416 106.89999914169312,0.03332674503326416 87.00000524520874,20.133317589759827 90.80000829696655,24.033342003822327 " class="st1"/>
   <polygon id="svg_12" points="83.80000829696655,17.033342003822327 100.60001134872437,0.03332674503326416 92.70000219345093,0.03332674503326416 79.80000829696655,12.933335900306702 83.80000829696655,17.033342003822327 " class="st1"/>
  </g>
 </g>
</svg>